<?xml version="1.0" standalone="no"?>
<!DOCTYPE svg PUBLIC "-//W3C//DTD SVG 20010904//EN"
 "http://www.w3.org/TR/2001/REC-SVG-20010904/DTD/svg10.dtd">
<svg version="1.0" xmlns="http://www.w3.org/2000/svg"
 width="703.000000pt" height="703.000000pt" viewBox="0 0 703.000000 703.000000"
 preserveAspectRatio="xMidYMid meet">
<metadata>
Created by potrace 1.11, written by Peter Selinger 2001-2013
</metadata>
<g transform="translate(0.000000,703.000000) scale(0.100000,-0.100000)"
fill="#000000" stroke="none">
<path d="M3160 5618 c-190 -127 -577 -386 -860 -574 l-515 -344 1725 0 1725 0
-150 100 c-82 55 -157 104 -165 110 -95 66 -1398 933 -1405 936 -5 2 -165
-101 -355 -228z m420 -71 c0 -5 5 -5 10 -2 6 3 10 2 10 -4 0 -5 23 -24 50 -42
54 -35 57 -40 35 -59 -8 -7 -15 -19 -15 -26 0 -8 -4 -14 -8 -14 -9 0 -29 -37
-30 -54 0 -5 -5 -12 -12 -16 -23 -14 -13 -140 12 -140 5 0 6 -4 3 -10 -10 -16
41 -23 79 -10 50 16 59 31 42 71 -16 38 -18 49 -11 49 3 0 21 6 40 14 20 9 36
15 38 16 1 0 12 3 24 6 13 4 20 11 16 17 -3 6 -1 7 6 3 6 -4 18 0 27 8 15 16
34 21 34 10 0 -3 -19 -45 -42 -93 -23 -47 -42 -88 -43 -91 -1 -3 -25 -54 -55
-115 -30 -60 -53 -113 -52 -117 1 -5 -2 -8 -7 -8 -5 0 -8 -32 -8 -71 l1 -72
-198 -1 c-110 0 -200 3 -204 8 -3 5 -6 41 -6 79 -1 46 -6 72 -14 75 -6 2 -12
10 -12 18 0 17 -21 56 -35 66 -5 4 -6 8 -2 8 9 0 -22 61 -36 71 -5 3 -8 10 -8
15 1 17 -10 44 -19 44 -5 0 -7 7 -4 15 4 8 1 15 -5 15 -6 0 -11 8 -11 19 0 10
-7 24 -15 31 -8 7 -12 16 -9 21 3 5 1 9 -5 9 -6 0 -8 6 -5 13 3 8 -2 20 -11
27 -21 17 -19 39 4 37 11 0 18 -4 16 -8 -7 -10 99 -58 132 -61 24 -2 29 -6 25
-20 -2 -10 -8 -18 -11 -18 -4 0 -8 -6 -8 -12 0 -7 -4 -21 -8 -30 -15 -37 97
-75 129 -43 9 9 14 20 11 25 -3 5 0 10 6 12 19 6 16 104 -4 125 -9 11 -14 23
-10 26 3 4 1 7 -5 7 -7 0 -12 5 -12 11 0 7 -8 18 -17 26 -10 8 -11 11 -3 7 8
-5 5 4 -8 20 -12 16 -22 31 -22 35 0 3 15 12 33 20 17 8 58 40 90 73 l59 59
29 -33 c16 -18 29 -37 29 -41z"/>
<path d="M1475 4477 c-66 -45 -205 -140 -310 -211 -104 -71 -230 -157 -280
-191 -49 -34 -153 -104 -230 -157 -77 -52 -196 -133 -265 -180 -69 -47 -163
-110 -210 -141 -124 -82 -141 -97 -133 -112 5 -8 91 -69 193 -136 102 -67 295
-195 430 -284 135 -89 385 -254 555 -367 599 -396 942 -622 1160 -766 121 -80
420 -278 665 -441 245 -162 452 -295 460 -295 13 0 291 182 1075 703 104 69
194 128 199 130 6 2 15 8 21 13 9 9 184 124 845 561 135 88 470 310 745 492
275 182 516 341 536 353 62 38 65 47 22 77 -57 40 -565 385 -843 573 -135 91
-247 168 -250 171 -3 3 -100 70 -217 149 l-212 142 -1918 0 -1918 -1 -120 -82z
m4064 -99 c169 -115 598 -406 809 -550 86 -59 164 -112 172 -118 170 -115 297
-203 303 -209 5 -5 -75 -64 -180 -133 -103 -69 -343 -228 -533 -353 -190 -126
-442 -292 -560 -370 -118 -78 -390 -258 -605 -400 -214 -142 -505 -333 -645
-426 -140 -92 -260 -172 -265 -177 -6 -5 -15 -11 -20 -13 -6 -2 -118 -76 -250
-163 -132 -88 -247 -160 -255 -160 -14 0 -172 103 -1150 751 -462 305 -847
560 -1375 909 -666 439 -796 526 -793 529 2 1 68 46 148 100 80 54 200 136
268 182 67 46 177 120 245 166 478 326 669 456 717 489 l55 38 1888 0 1889 0
137 -92z"/>
<path d="M4184 4336 c-43 -19 -86 -75 -105 -137 -23 -74 -24 -738 -2 -814 29
-96 86 -149 167 -151 88 -3 144 42 180 144 13 36 15 105 13 426 l-2 382 -30
60 c-24 47 -39 63 -75 82 -50 25 -100 28 -146 8z m91 -142 c8 -4 23 -20 32
-37 23 -46 23 -688 0 -734 -16 -31 -53 -48 -80 -37 -39 15 -42 44 -42 410 l0
352 24 26 c25 27 38 31 66 20z"/>
<path d="M1723 3790 l0 -540 59 0 58 0 0 224 0 224 59 4 c78 6 130 39 161 105
32 67 41 280 15 368 -36 125 -83 154 -246 155 l-107 0 1 -540z m193 384 c42
-11 56 -59 53 -171 -5 -120 -19 -144 -88 -149 l-41 -2 0 164 0 164 28 0 c15 0
37 -3 48 -6z"/>
<path d="M2290 3789 l1 -540 112 2 c143 2 185 21 224 99 29 57 34 131 32 459
-1 272 -4 345 -16 381 -38 111 -87 139 -246 140 l-107 0 0 -541z m197 385 c12
-3 29 -22 38 -41 15 -31 17 -76 17 -338 0 -338 -4 -367 -54 -384 -17 -6 -42
-11 -54 -11 l-24 0 0 390 0 390 28 0 c15 0 37 -3 49 -6z"/>
<path d="M2877 4323 c-7 -15 -1 -898 7 -933 22 -93 72 -146 149 -156 59 -8
109 9 146 51 58 67 61 92 61 592 l0 453 -58 0 -59 0 0 -437 c-1 -287 -5 -448
-12 -466 -12 -30 -44 -47 -74 -39 -45 12 -47 34 -47 502 l0 440 -54 0 c-30 0
-57 -3 -59 -7z"/>
<path d="M3460 3790 l0 -540 55 0 c37 0 55 4 56 13 0 6 1 165 1 352 0 292 2
333 13 290 18 -72 76 -326 81 -355 2 -14 19 -87 36 -162 l32 -138 58 0 58 0 0
540 0 540 -55 0 -55 0 -1 -37 c0 -21 -1 -163 -1 -316 0 -153 -1 -277 -3 -275
-3 3 -72 307 -82 358 -2 14 -16 79 -31 145 l-28 120 -67 3 -67 3 0 -541z"/>
<path d="M4635 4278 c3 -29 8 -64 10 -78 2 -14 7 -54 10 -90 3 -36 8 -81 11
-100 2 -19 7 -57 9 -85 3 -27 7 -66 10 -85 2 -19 7 -60 10 -90 3 -30 7 -71 10
-90 2 -19 7 -62 10 -95 3 -33 8 -71 10 -85 2 -14 6 -54 10 -90 3 -36 8 -74 10
-85 2 -11 4 -28 4 -37 1 -15 11 -18 61 -18 33 0 61 3 62 8 0 4 2 18 3 32 1 14
6 52 9 85 4 33 9 78 11 100 2 22 8 78 14 125 6 47 13 119 17 160 9 112 19 113
29 3 3 -40 8 -80 9 -90 2 -10 7 -52 10 -93 4 -41 9 -89 11 -105 2 -17 6 -61
10 -100 3 -38 8 -79 10 -90 2 -11 4 -23 4 -27 1 -5 28 -8 60 -8 l59 0 6 38 c3
20 8 64 11 97 3 33 8 71 10 85 2 14 6 57 10 95 4 39 8 77 10 85 2 8 6 49 10
90 4 41 8 86 10 100 1 14 6 54 10 90 4 36 9 72 10 80 1 8 6 49 10 90 3 41 8
86 10 100 2 14 7 49 10 78 l6 52 -60 0 c-51 0 -61 -3 -62 -17 -1 -10 -2 -29
-4 -43 -1 -14 -5 -56 -9 -95 -3 -38 -9 -90 -11 -115 -2 -25 -7 -70 -10 -100
-2 -30 -8 -82 -11 -115 -10 -100 -12 -118 -13 -169 -2 -88 -14 -36 -26 109 -3
39 -7 88 -10 110 -5 44 -15 154 -21 225 -2 25 -6 77 -10 115 -4 39 -7 76 -7
83 0 8 -18 12 -54 12 -35 0 -53 -4 -54 -12 0 -7 -2 -20 -3 -28 -2 -8 -7 -51
-10 -95 -12 -140 -16 -177 -32 -330 -8 -84 -12 -129 -13 -172 -2 -55 -17 -37
-20 22 -1 30 -4 62 -5 72 -2 10 -7 50 -10 88 -12 135 -17 180 -21 215 -6 54
-19 193 -19 215 -1 18 -9 20 -64 23 l-63 3 6 -53z m306 -421 c-10 -9 -11 -8
-5 6 3 10 9 15 12 12 3 -3 0 -11 -7 -18z"/>
<path d="M1334 3934 c-21 -15 -68 -47 -104 -72 -135 -95 -279 -194 -382 -263
-59 -40 -110 -80 -113 -90 -10 -32 16 -64 93 -113 164 -106 740 -485 1337
-882 132 -87 247 -162 257 -166 22 -9 51 24 46 53 -3 26 31 2 -684 474 -707
467 -918 609 -921 620 -1 6 124 98 279 205 154 107 283 201 285 208 6 15 -24
52 -42 52 -7 0 -30 -12 -51 -26z"/>
<path d="M5607 3942 c-10 -10 -17 -24 -17 -30 0 -10 80 -68 420 -305 47 -32
100 -69 117 -80 18 -12 31 -26 30 -32 -3 -11 -297 -208 -995 -669 -637 -420
-607 -399 -610 -425 -4 -26 24 -62 43 -55 7 3 206 133 442 289 355 235 920
608 1101 727 24 15 47 28 53 28 5 0 9 4 9 9 0 5 9 12 19 16 33 10 71 55 67 79
-3 11 -5 24 -5 28 -1 3 -18 17 -38 30 -34 20 -229 154 -438 299 -178 124 -171
121 -198 91z"/>
<path d="M3796 3093 c-97 -29 -159 -85 -204 -182 -31 -68 -35 -197 -9 -276 18
-52 72 -120 120 -151 l29 -18 -34 -17 c-45 -23 -115 -94 -138 -140 -11 -20
-24 -57 -31 -83 l-11 -46 -78 0 -77 0 1 433 c1 237 -2 439 -5 447 -5 11 -22
15 -64 14 -31 -1 -60 -5 -64 -10 -5 -5 -126 -206 -270 -447 -259 -434 -262
-439 -259 -489 l3 -50 268 0 c266 0 267 0 268 -22 0 -11 1 -87 1 -168 l0 -148
59 0 c40 0 59 4 60 13 0 6 1 82 1 168 l1 156 74 2 c79 2 78 3 87 -59 18 -126
102 -238 216 -287 58 -24 80 -28 195 -28 103 0 114 2 175 31 82 40 146 103
181 179 86 186 34 418 -117 518 l-54 35 24 16 c126 82 173 250 116 412 -28 81
-78 137 -158 176 -60 30 -76 33 -162 35 -60 1 -113 -4 -144 -14z m234 -115
c152 -65 177 -329 41 -422 -115 -78 -289 -46 -351 64 -21 38 -25 58 -25 130 1
131 43 201 143 235 46 16 147 12 192 -7z m-787 -445 l1 -348 -217 -3 -218 -2
39 62 c51 82 356 596 371 626 7 13 15 21 18 18 3 -2 6 -161 6 -353z m782 -147
c72 -18 155 -102 171 -176 49 -217 -74 -396 -271 -395 -81 1 -123 15 -182 63
-61 49 -95 124 -98 215 -5 160 65 267 192 296 43 9 142 7 188 -3z"/>
</g>
</svg>
